<?xml version="1.0" standalone="no"?>
<svg xmlns="http://www.w3.org/2000/svg" xmlns:xlink="http://www.w3.org/1999/xlink" width="957pt" height="1251pt" viewBox="0.00 0.00 956.87 1251.00">
<g id="graph0" class="graph" transform="translate(4,1247) scale(1)" data-name="classes">

<polygon fill="white" stroke="none" points="-4,4 -4,-1247 952.87,-1247 952.87,4 -4,4" style=""/>
<g id="clust1" class="cluster" data-name="cluster_relm">

<polygon fill="none" stroke="black" points="694.43,-8 694.43,-282 787.09,-282 787.09,-8 694.43,-8" style=""/>
</g>
<g id="clust2" class="cluster" data-name="cluster_array">

<polygon fill="none" stroke="black" points="685.11,-922 685.11,-1031 937.77,-1031 937.77,-922 685.11,-922" style=""/>
</g>
<g id="clust3" class="cluster" data-name="cluster_code">

<polygon fill="none" stroke="black" points="458.16,-290 458.16,-344 775.76,-344 775.76,-290 458.16,-290" style=""/>
</g>
<g id="clust4" class="cluster" data-name="cluster_if">

<polygon fill="none" stroke="black" points="124.7,-273 124.7,-382 365.39,-382 365.39,-273 124.7,-273" style=""/>
</g>
<g id="clust5" class="cluster" data-name="cluster_sram">

<polygon fill="none" stroke="black" points="681.59,-1126 681.59,-1235 938.61,-1235 938.61,-1126 681.59,-1126" style=""/>
</g>
<g id="clust6" class="cluster" data-name="cluster_func">

<polygon fill="none" stroke="black" points="111.08,-758 111.08,-867 373.18,-867 373.18,-758 111.08,-758" style=""/>
</g>
<g id="clust7" class="cluster" data-name="cluster_loop">

<polygon fill="none" stroke="black" points="118.09,-503 118.09,-613 528.16,-613 528.16,-503 118.09,-503" style=""/>
</g>
<!-- relm.Define -->
<g id="node1" class="node" pointer-events="visible" data-name="relm.Define">

<polygon fill="none" stroke="black" points="713.71,-237 713.71,-273 767.8,-273 767.8,-237 713.71,-237" style=""/>
<text text-anchor="start" x="721.71" y="-250.9" font-family="Times,serif" font-size="14.00" style="">Define</text>
</g>
<!-- relm.Thread -->
<g id="node2" class="node" pointer-events="visible" data-name="relm.Thread">

<polygon fill="none" stroke="black" points="712.94,-182 712.94,-218 768.58,-218 768.58,-182 712.94,-182" style=""/>
<text text-anchor="start" x="720.94" y="-195.9" font-family="Times,serif" font-size="14.00" style="">Thread</text>
</g>
<!-- relm.Loader -->
<g id="node3" class="node" pointer-events="visible" data-name="relm.Loader">

<polygon fill="none" stroke="black" points="712.94,-127 712.94,-163 768.58,-163 768.58,-127 712.94,-127" style=""/>
<text text-anchor="start" x="720.94" y="-140.9" font-family="Times,serif" font-size="14.00" style="">Loader</text>
</g>
<!-- relm.ReLM -->
<g id="node4" class="node" pointer-events="visible" data-name="relm.ReLM">

<polygon fill="none" stroke="black" points="713.76,-72 713.76,-108 767.76,-108 767.76,-72 713.76,-72" style=""/>
<text text-anchor="start" x="722.48" y="-85.9" font-family="Times,serif" font-size="14.00" style="">ReLM</text>
</g>
<!-- relm.Mnemonic -->
<g id="node5" class="node" pointer-events="visible" data-name="relm.Mnemonic">

<polygon fill="none" stroke="black" points="702.43,-17 702.43,-53 779.09,-53 779.09,-17 702.43,-17" style=""/>
<text text-anchor="start" x="710.43" y="-30.9" font-family="Times,serif" font-size="14.00" style="">Mnemonic</text>
</g>
<!-- relm.Statement -->
<g id="node6" class="node" pointer-events="visible" data-name="relm.Statement">

<polygon fill="none" stroke="black" points="0,-568 0,-604 71.99,-604 71.99,-568 0,-568" style=""/>
<text text-anchor="start" x="8" y="-581.9" font-family="Times,serif" font-size="14.00" style="">Statement</text>
</g>
<!-- relm.ErrorStatement -->
<g id="node7" class="node" pointer-events="visible" data-name="relm.ErrorStatement">

<polygon fill="none" stroke="black" points="108.99,-458 108.99,-494 210.51,-494 210.51,-458 108.99,-458" style=""/>
<text text-anchor="start" x="116.99" y="-471.9" font-family="Times,serif" font-size="14.00" style="">ErrorStatement</text>
</g>
<!-- relm.ErrorStatement&#45;&gt;relm.Statement -->
<g id="edge13" class="edge" data-name="relm.ErrorStatement-&gt;relm.Statement">

<path fill="none" stroke="black" d="M116.67,-493.74C113.99,-495.39 111.4,-497.14 108.99,-499 87.26,-515.73 67.79,-540.15 54.59,-558.86" style=""/>
<polygon fill="none" stroke="black" points="51.73,-556.84 48.96,-567.07 57.5,-560.8 51.73,-556.84" style=""/>
</g>
<!-- relm.AccExpr -->
<g id="node8" class="node" pointer-events="visible" data-name="relm.AccExpr">

<polygon fill="none" stroke="black" points="707.88,-1041 707.88,-1077 773.64,-1077 773.64,-1041 707.88,-1041" style=""/>
<text text-anchor="start" x="715.88" y="-1054.9" font-family="Times,serif" font-size="14.00" style="">AccExpr</text>
</g>
<!-- relm.Expr -->
<g id="node13" class="node" pointer-events="visible" data-name="relm.Expr">

<polygon fill="none" stroke="black" points="598.59,-1041 598.59,-1077 652.59,-1077 652.59,-1041 598.59,-1041" style=""/>
<text text-anchor="start" x="611.99" y="-1054.9" font-family="Times,serif" font-size="14.00" style="">Expr</text>
</g>
<!-- relm.AccExpr&#45;&gt;relm.Expr -->
<g id="edge1" class="edge" data-name="relm.AccExpr-&gt;relm.Expr">

<path fill="none" stroke="black" d="M707.94,-1059C694.25,-1059 678.15,-1059 663.91,-1059" style=""/>
<polygon fill="none" stroke="black" points="663.98,-1055.5 653.98,-1059 663.98,-1062.5 663.98,-1055.5" style=""/>
</g>
<!-- relm.RegBType -->
<g id="node9" class="node" pointer-events="visible" data-name="relm.RegBType">

<polygon fill="none" stroke="black" points="454.83,-1101 454.83,-1137 531.49,-1137 531.49,-1101 454.83,-1101" style=""/>
<text text-anchor="start" x="462.83" y="-1114.9" font-family="Times,serif" font-size="14.00" style="">RegBType</text>
</g>
<!-- relm.BinaryOp -->
<g id="node12" class="node" pointer-events="visible" data-name="relm.BinaryOp">

<polygon fill="none" stroke="black" points="282.68,-1101 282.68,-1137 353.9,-1137 353.9,-1101 282.68,-1101" style=""/>
<text text-anchor="start" x="290.68" y="-1114.9" font-family="Times,serif" font-size="14.00" style="">BinaryOp</text>
</g>
<!-- relm.RegBType&#45;&gt;relm.BinaryOp -->
<g id="edge24" class="edge" data-name="relm.RegBType-&gt;relm.BinaryOp">

<path fill="none" stroke="black" d="M455.08,-1119C428.66,-1119 392.98,-1119 364.83,-1119" style=""/>
<polygon fill="none" stroke="black" points="365.18,-1115.5 355.18,-1119 365.18,-1122.5 365.18,-1115.5" style=""/>
</g>
<!-- relm.Bool -->
<g id="node10" class="node" pointer-events="visible" data-name="relm.Bool">

<polygon fill="none" stroke="black" points="291.29,-712 291.29,-748 345.29,-748 345.29,-712 291.29,-712" style=""/>
<text text-anchor="start" x="304.68" y="-725.9" font-family="Times,serif" font-size="14.00" style="">Bool</text>
</g>
<!-- relm.Bool&#45;&gt;relm.ErrorStatement -->
<g id="edge8" class="edge" data-name="relm.Bool-&gt;relm.ErrorStatement">

<path fill="none" stroke="black" d="M302.48,-712.27C291.95,-698.6 278.46,-678.77 271.4,-659 259.37,-625.3 276.99,-525.91 253.4,-499 245.12,-489.55 233.62,-483.68 221.53,-480.1" style=""/>
<polygon fill="none" stroke="black" points="222.36,-476.7 211.82,-477.77 220.72,-483.51 222.36,-476.7" style=""/>
</g>
<!-- relm.ExprB -->
<g id="node11" class="node" pointer-events="visible" data-name="relm.ExprB">

<polygon fill="none" stroke="black" points="466.16,-1002 466.16,-1038 520.16,-1038 520.16,-1002 466.16,-1002" style=""/>
<text text-anchor="start" x="474.89" y="-1015.9" font-family="Times,serif" font-size="14.00" style="">ExprB</text>
</g>
<!-- relm.ExprB&#45;&gt;relm.Bool -->
<g id="edge47" class="edge" data-name="relm.ExprB-&gt;relm.Bool">

<path fill="none" stroke="black" d="M466.61,-1017.71C440.88,-1013.92 402.32,-1003.82 383.18,-977 354.36,-936.62 401.12,-794.99 373.18,-754 368.94,-747.78 362.69,-743.15 355.94,-739.72" style=""/>
<polygon fill="none" stroke="black" points="356.22,-739.83 349.14,-741.23 345.13,-735.24 352.2,-733.84 356.22,-739.83" style=""/>
<text text-anchor="middle" x="410.01" y="-1014.2" font-family="Times,serif" font-size="14.00" fill="green" style="">expr</text>
</g>
<!-- relm.ExprB&#45;&gt;relm.BinaryOp -->
<g id="edge15" class="edge" data-name="relm.ExprB-&gt;relm.BinaryOp">

<path fill="none" stroke="black" d="M466.28,-1034.82C438.28,-1050.86 393.25,-1076.64 360.4,-1095.46" style=""/>
<polygon fill="none" stroke="black" points="358.88,-1092.29 351.94,-1100.3 362.36,-1098.37 358.88,-1092.29" style=""/>
</g>
<!-- relm.BinaryOp&#45;&gt;relm.Statement -->
<g id="edge6" class="edge" data-name="relm.BinaryOp-&gt;relm.Statement">

<path fill="none" stroke="black" d="M283.08,-1125.55C232.94,-1132.97 140.03,-1138.01 89.99,-1086 57.2,-1051.92 41.95,-717.23 38.04,-615.31" style=""/>
<polygon fill="none" stroke="black" points="41.54,-615.18 37.66,-605.32 34.54,-615.44 41.54,-615.18" style=""/>
</g>
<!-- relm.SRAMElement -->
<g id="node30" class="node" pointer-events="visible" data-name="relm.SRAMElement">

<polygon fill="none" stroke="black" points="689.59,-1190 689.59,-1226 791.92,-1226 791.92,-1190 689.59,-1190" style=""/>
<text text-anchor="start" x="697.59" y="-1203.9" font-family="Times,serif" font-size="14.00" style="">SRAMElement</text>
</g>
<!-- relm.BinaryOp&#45;&gt;relm.SRAMElement -->
<g id="edge44" class="edge" data-name="relm.BinaryOp-&gt;relm.SRAMElement">

<path fill="none" stroke="black" d="M339.58,-1136.65C364.65,-1157.14 409.56,-1189.71 454.83,-1202 529.66,-1222.31 619.64,-1220.01 678.19,-1215.16" style=""/>
<polygon fill="none" stroke="black" points="677.87,-1215.19 683.49,-1210.67 689.82,-1214.13 684.2,-1218.64 677.87,-1215.19" style=""/>
<text text-anchor="middle" x="565.04" y="-1222.2" font-family="Times,serif" font-size="14.00" fill="green" style="">index</text>
</g>
<!-- relm.Expr&#45;&gt;relm.ExprB -->
<g id="edge14" class="edge" data-name="relm.Expr-&gt;relm.ExprB">

<path fill="none" stroke="black" d="M598.72,-1048.41C592.81,-1046.16 586.52,-1043.89 580.59,-1042 564.61,-1036.9 546.67,-1032.17 531.29,-1028.42" style=""/>
<polygon fill="none" stroke="black" points="532.12,-1025.02 521.58,-1026.1 530.49,-1031.83 532.12,-1025.02" style=""/>
</g>
<!-- relm.Int -->
<g id="node14" class="node" pointer-events="visible" data-name="relm.Int">

<polygon fill="none" stroke="black" points="466.16,-1156 466.16,-1192 520.16,-1192 520.16,-1156 466.16,-1156" style=""/>
<text text-anchor="start" x="485.39" y="-1169.9" font-family="Times,serif" font-size="14.00" style="">Int</text>
</g>
<!-- relm.Expr&#45;&gt;relm.Int -->
<g id="edge32" class="edge" data-name="relm.Expr-&gt;relm.Int">

<path fill="none" stroke="black" d="M607.04,-1076.93C588.78,-1095.24 559.07,-1124.16 531.49,-1147 530.68,-1147.67 529.86,-1148.34 529.02,-1149.01" style=""/>
<polygon fill="black" stroke="black" points="529.3,-1148.8 526.99,-1155.63 519.8,-1156.14 522.1,-1149.3 529.3,-1148.8" style=""/>
<text text-anchor="middle" x="565.04" y="-1135.2" font-family="Times,serif" font-size="14.00" fill="green" style="">expr</text>
</g>
<!-- relm.Int&#45;&gt;relm.BinaryOp -->
<g id="edge20" class="edge" data-name="relm.Int-&gt;relm.BinaryOp">

<path fill="none" stroke="black" d="M466.28,-1165.77C439.37,-1157.2 396.72,-1143.64 364.28,-1133.31" style=""/>
<polygon fill="none" stroke="black" points="365.74,-1130.11 355.15,-1130.41 363.62,-1136.78 365.74,-1130.11" style=""/>
</g>
<!-- relm.FIFO -->
<g id="node15" class="node" pointer-events="visible" data-name="relm.FIFO">

<polygon fill="none" stroke="black" points="466.16,-937 466.16,-973 520.16,-973 520.16,-937 466.16,-937" style=""/>
<text text-anchor="start" x="477.99" y="-950.9" font-family="Times,serif" font-size="14.00" style="">FIFO</text>
</g>
<!-- relm_font.Console -->
<g id="node16" class="node" pointer-events="visible" data-name="relm_font.Console">

<polygon fill="none" stroke="black" points="287.35,-917 287.35,-953 349.23,-953 349.23,-917 287.35,-917" style=""/>
<text text-anchor="start" x="295.35" y="-930.9" font-family="Times,serif" font-size="14.00" style="">Console</text>
</g>
<!-- relm.FIFO&#45;&gt;relm_font.Console -->
<g id="edge48" class="edge" data-name="relm.FIFO-&gt;relm_font.Console">

<path fill="none" stroke="black" d="M466.43,-944.36C457.25,-941.08 446.74,-937.89 436.83,-936.2 411.88,-931.95 383.52,-931.53 360.9,-932.24" style=""/>
<polygon fill="none" stroke="black" points="360.98,-932.23 355.15,-936.48 348.99,-932.72 354.82,-928.48 360.98,-932.23" style=""/>
<text text-anchor="middle" x="410.01" y="-940.2" font-family="Times,serif" font-size="14.00" fill="green" style="">fifo_font</text>
</g>
<!-- relm.FIFO&#45;&gt;relm_font.Console -->
<g id="edge49" class="edge" data-name="relm.FIFO-&gt;relm_font.Console">

<path fill="none" stroke="black" d="M466.47,-956.37C444.29,-957.12 411.45,-957.17 383.18,-953 375.77,-951.91 368.01,-950.21 360.55,-948.28" style=""/>
<polygon fill="none" stroke="black" points="360.73,-948.34 353.88,-950.59 349.17,-945.13 356.02,-942.88 360.73,-948.34" style=""/>
<text text-anchor="middle" x="410.01" y="-960.2" font-family="Times,serif" font-size="14.00" fill="green" style="">fifo_print</text>
</g>
<!-- relm.Table -->
<g id="node17" class="node" pointer-events="visible" data-name="relm.Table">

<polygon fill="none" stroke="black" points="466.16,-731 466.16,-767 520.16,-767 520.16,-731 466.16,-731" style=""/>
<text text-anchor="start" x="477.23" y="-744.9" font-family="Times,serif" font-size="14.00" style="">Table</text>
</g>
<!-- relm.Table&#45;&gt;relm.Statement -->
<g id="edge27" class="edge" data-name="relm.Table-&gt;relm.Statement">

<path fill="none" stroke="black" d="M466.32,-738.54C442.32,-728.94 405.52,-714.51 373.18,-703 256.84,-661.61 224.53,-660.58 108.99,-617 100.3,-613.72 91.12,-609.99 82.34,-606.28" style=""/>
<polygon fill="none" stroke="black" points="83.84,-603.11 73.27,-602.39 81.08,-609.55 83.84,-603.11" style=""/>
</g>
<!-- relm.Table&#45;&gt;relm_font.Console -->
<g id="edge57" class="edge" data-name="relm.Table-&gt;relm_font.Console">

<path fill="none" stroke="black" d="M470.66,-766.9C465.32,-771.64 459.73,-776.87 454.83,-782 419.74,-818.8 407.57,-826.58 383.18,-871.2 376.48,-883.46 381.81,-890.01 373.18,-901 369.16,-906.11 364.15,-910.67 358.82,-914.65" style=""/>
<polygon fill="none" stroke="black" points="358.98,-914.54 356.21,-921.2 349,-921.21 351.77,-914.55 358.98,-914.54" style=""/>
<text text-anchor="middle" x="410.01" y="-875.2" font-family="Times,serif" font-size="14.00" fill="green" style="">font</text>
</g>
<!-- relm.Block -->
<g id="node18" class="node" pointer-events="visible" data-name="relm.Block">

<polygon fill="none" stroke="black" points="466.16,-623 466.16,-659 520.16,-659 520.16,-623 466.16,-623" style=""/>
<text text-anchor="start" x="476.44" y="-636.9" font-family="Times,serif" font-size="14.00" style="">Block</text>
</g>
<!-- relm.Block&#45;&gt;relm.Statement -->
<g id="edge7" class="edge" data-name="relm.Block-&gt;relm.Statement">

<path fill="none" stroke="black" d="M466.33,-655.15C462.2,-658.08 458.19,-661.39 454.83,-665 409.41,-713.92 403.91,-733.55 383.18,-797 378.03,-812.77 385.67,-860.08 373.18,-871 328.97,-909.63 155.31,-907.07 108.99,-871 68.43,-839.41 47.12,-681.04 39.88,-614.99" style=""/>
<polygon fill="none" stroke="black" points="43.39,-614.87 38.85,-605.29 36.43,-615.61 43.39,-614.87" style=""/>
</g>
<!-- relm.Function -->
<g id="node32" class="node" pointer-events="visible" data-name="relm.Function">

<polygon fill="none" stroke="black" points="285.4,-767 285.4,-803 351.18,-803 351.18,-767 285.4,-767" style=""/>
<text text-anchor="start" x="293.4" y="-780.9" font-family="Times,serif" font-size="14.00" style="">Function</text>
</g>
<!-- relm.Block&#45;&gt;relm.Function -->
<g id="edge31" class="edge" data-name="relm.Block-&gt;relm.Function">

<path fill="none" stroke="black" d="M466.56,-637.04C441.54,-634.77 404.23,-635.92 383.18,-658.2 367.87,-674.4 385.82,-739.64 373.18,-758 370.09,-762.48 366.03,-766.26 361.52,-769.43" style=""/>
<polygon fill="black" stroke="black" points="361.53,-769.43 358.34,-775.9 351.14,-775.45 354.33,-768.98 361.53,-769.43" style=""/>
<text text-anchor="middle" x="410.01" y="-662.2" font-family="Times,serif" font-size="14.00" fill="green" style="">body</text>
</g>
<!-- relm.DoLoop -->
<g id="node36" class="node" pointer-events="visible" data-name="relm.DoLoop">

<polygon fill="none" stroke="black" points="128.42,-568 128.42,-604 191.08,-604 191.08,-568 128.42,-568" style=""/>
<text text-anchor="start" x="136.42" y="-581.9" font-family="Times,serif" font-size="14.00" style="">DoLoop</text>
</g>
<!-- relm.Block&#45;&gt;relm.DoLoop -->
<g id="edge45" class="edge" data-name="relm.Block-&gt;relm.DoLoop">

<path fill="none" stroke="black" d="M466.23,-639.45C408.92,-635.87 273.06,-626.44 228.51,-615 219.63,-612.72 210.42,-609.45 201.75,-605.91" style=""/>
<polygon fill="none" stroke="black" points="201.77,-605.92 194.68,-607.23 190.75,-601.18 197.84,-599.88 201.77,-605.92" style=""/>
<text text-anchor="middle" x="318.29" y="-636.2" font-family="Times,serif" font-size="14.00" fill="green" style="">block</text>
</g>
<!-- relm.DoWhile -->
<g id="node37" class="node" pointer-events="visible" data-name="relm.DoWhile">

<polygon fill="none" stroke="black" points="126.09,-513 126.09,-549 193.41,-549 193.41,-513 126.09,-513" style=""/>
<text text-anchor="start" x="134.09" y="-526.9" font-family="Times,serif" font-size="14.00" style="">DoWhile</text>
</g>
<!-- relm.Block&#45;&gt;relm.DoWhile -->
<g id="edge46" class="edge" data-name="relm.Block-&gt;relm.DoWhile">

<path fill="none" stroke="black" d="M466.58,-630.86C442.75,-621.8 406.07,-608.81 373.18,-601.2 309.99,-586.58 284.82,-614.19 228.51,-582 217.24,-575.56 220.36,-567.46 210.51,-559 208.24,-557.05 205.81,-555.17 203.3,-553.37" style=""/>
<polygon fill="none" stroke="black" points="203.36,-553.41 196.15,-553.49 193.31,-546.86 200.52,-546.79 203.36,-553.41" style=""/>
<text text-anchor="middle" x="318.29" y="-605.2" font-family="Times,serif" font-size="14.00" fill="green" style="">block</text>
</g>
<!-- relm_de0cv.ReLMLoader -->
<g id="node19" class="node" pointer-events="visible" data-name="relm_de0cv.ReLMLoader">

<polygon fill="none" stroke="black" points="856.68,-72 856.68,-108 948.87,-108 948.87,-72 856.68,-72" style=""/>
<text text-anchor="start" x="864.68" y="-85.9" font-family="Times,serif" font-size="14.00" style="">ReLMLoader</text>
</g>
<!-- relm_de0cv.ReLMLoader&#45;&gt;relm.ReLM -->
<g id="edge30" class="edge" data-name="relm_de0cv.ReLMLoader-&gt;relm.ReLM">

<path fill="none" stroke="black" d="M856.77,-90C832.22,-90 802.17,-90 778.95,-90" style=""/>
<polygon fill="none" stroke="black" points="779.01,-86.5 769.01,-90 779.01,-93.5 779.01,-86.5" style=""/>
</g>
<!-- relm.Array -->
<g id="node20" class="node" pointer-events="visible" data-name="relm.Array">

<polygon fill="none" stroke="black" points="875.77,-957 875.77,-993 929.77,-993 929.77,-957 875.77,-957" style=""/>
<text text-anchor="start" x="886.45" y="-970.9" font-family="Times,serif" font-size="14.00" style="">Array</text>
</g>
<!-- relm.Array&#45;&gt;relm.Statement -->
<g id="edge3" class="edge" data-name="relm.Array-&gt;relm.Statement">

<path fill="none" stroke="black" d="M890.98,-992.8C873.82,-1019.17 837.54,-1067.59 791.92,-1087 636.02,-1153.33 580.44,-1072 411.01,-1072 411.01,-1072 411.01,-1072 158.75,-1072 63.99,-1072 42.33,-719.98 37.99,-615.13" style=""/>
<polygon fill="none" stroke="black" points="41.49,-615.24 37.61,-605.39 34.5,-615.51 41.49,-615.24" style=""/>
</g>
<!-- relm.Array&#45;&gt;relm_font.Console -->
<g id="edge43" class="edge" data-name="relm.Array-&gt;relm_font.Console">

<path fill="none" stroke="black" d="M879.14,-957.14C849.4,-935.53 794.74,-902 741.76,-902 741.76,-902 741.76,-902 492.16,-902 446.32,-902 394.83,-913.34 360.06,-922.72" style=""/>
<polygon fill="none" stroke="black" points="360.51,-922.6 355.79,-928.06 348.94,-925.81 353.65,-920.35 360.51,-922.6" style=""/>
<text text-anchor="middle" x="625.59" y="-906.2" font-family="Times,serif" font-size="14.00" fill="green" style="">vram</text>
</g>
<!-- relm.ArrayElement -->
<g id="node21" class="node" pointer-events="visible" data-name="relm.ArrayElement">

<polygon fill="none" stroke="black" points="693.11,-931 693.11,-967 788.41,-967 788.41,-931 693.11,-931" style=""/>
<text text-anchor="start" x="701.11" y="-944.9" font-family="Times,serif" font-size="14.00" style="">ArrayElement</text>
</g>
<!-- relm.Array&#45;&gt;relm.ArrayElement -->
<g id="edge41" class="edge" data-name="relm.Array-&gt;relm.ArrayElement">

<path fill="none" stroke="black" d="M875.9,-967.07C864.57,-963.87 851.06,-960.42 838.68,-958.2 826.19,-955.96 812.7,-954.25 799.87,-952.94" style=""/>
<polygon fill="none" stroke="black" points="800.26,-952.97 793.91,-956.39 788.31,-951.85 794.66,-948.43 800.26,-952.97" style=""/>
<text text-anchor="middle" x="824.3" y="-962.2" font-family="Times,serif" font-size="14.00" fill="green" style="">array</text>
</g>
<!-- relm.ArrayOffset -->
<g id="node22" class="node" pointer-events="visible" data-name="relm.ArrayOffset">

<polygon fill="none" stroke="black" points="698.94,-986 698.94,-1022 782.58,-1022 782.58,-986 698.94,-986" style=""/>
<text text-anchor="start" x="706.94" y="-999.9" font-family="Times,serif" font-size="14.00" style="">ArrayOffset</text>
</g>
<!-- relm.Array&#45;&gt;relm.ArrayOffset -->
<g id="edge42" class="edge" data-name="relm.Array-&gt;relm.ArrayOffset">

<path fill="none" stroke="black" d="M876.06,-979.66C853.96,-983.67 821.37,-989.57 793.84,-994.56" style=""/>
<polygon fill="none" stroke="black" points="794.2,-994.5 789.01,-999.5 782.39,-996.64 787.58,-991.63 794.2,-994.5" style=""/>
<text text-anchor="middle" x="824.3" y="-995.2" font-family="Times,serif" font-size="14.00" fill="green" style="">array</text>
</g>
<!-- relm.ArrayElement&#45;&gt;relm.ExprB -->
<g id="edge4" class="edge" data-name="relm.ArrayElement-&gt;relm.ExprB">

<path fill="none" stroke="black" d="M693.28,-962.44C646.17,-976.06 574.24,-996.85 530.95,-1009.36" style=""/>
<polygon fill="none" stroke="black" points="530.16,-1005.95 521.53,-1012.09 532.11,-1012.67 530.16,-1005.95" style=""/>
</g>
<!-- relm.ArrayOffset&#45;&gt;relm.Expr -->
<g id="edge5" class="edge" data-name="relm.ArrayOffset-&gt;relm.Expr">

<path fill="none" stroke="black" d="M702.5,-1021.88C695.55,-1025.23 688.35,-1028.72 681.59,-1032 675.53,-1034.95 669.09,-1038.09 662.84,-1041.16" style=""/>
<polygon fill="none" stroke="black" points="661.39,-1037.97 653.95,-1045.52 664.47,-1044.26 661.39,-1037.97" style=""/>
</g>
<!-- relm.Code -->
<g id="node23" class="node" pointer-events="visible" data-name="relm.Code">

<polygon fill="none" stroke="black" points="466.16,-299 466.16,-335 520.16,-335 520.16,-299 466.16,-299" style=""/>
<text text-anchor="start" x="478.39" y="-312.9" font-family="Times,serif" font-size="14.00" style="">Code</text>
</g>
<!-- relm.Code&#45;&gt;relm.Statement -->
<g id="edge9" class="edge" data-name="relm.Code-&gt;relm.Statement">

<path fill="none" stroke="black" d="M466.37,-334.97C443,-350.5 407.14,-372.52 373.18,-386 261.09,-430.51 204.25,-374.03 108.99,-448 73.44,-475.6 53.67,-525.7 44.2,-557.34" style=""/>
<polygon fill="none" stroke="black" points="40.93,-556.05 41.58,-566.63 47.66,-557.95 40.93,-556.05" style=""/>
</g>
<!-- relm.Label -->
<g id="node24" class="node" pointer-events="visible" data-name="relm.Label">

<polygon fill="none" stroke="black" points="598.59,-299 598.59,-335 652.59,-335 652.59,-299 598.59,-299" style=""/>
<text text-anchor="start" x="609.66" y="-312.9" font-family="Times,serif" font-size="14.00" style="">Label</text>
</g>
<!-- relm.Label&#45;&gt;relm.Table -->
<g id="edge39" class="edge" data-name="relm.Label-&gt;relm.Table">

<path fill="none" stroke="black" d="M624.87,-334.97C625.59,-403.71 624.94,-649.08 580.59,-710 568.97,-725.97 549.25,-735.54 531.58,-741.2" style=""/>
<polygon fill="black" stroke="black" points="531.63,-741.18 526.94,-746.67 520.08,-744.45 524.77,-738.97 531.63,-741.18" style=""/>
<text text-anchor="middle" x="565.04" y="-737.2" font-family="Times,serif" font-size="14.00" fill="green" style="">base</text>
</g>
<!-- relm.Label&#45;&gt;relm.Code -->
<g id="edge22" class="edge" data-name="relm.Label-&gt;relm.Code">

<path fill="none" stroke="black" d="M598.82,-317C579.53,-317 552.86,-317 531.27,-317" style=""/>
<polygon fill="none" stroke="black" points="531.39,-313.5 521.39,-317 531.39,-320.5 531.39,-313.5" style=""/>
</g>
<!-- relm.Label&#45;&gt;relm.Function -->
<g id="edge33" class="edge" data-name="relm.Label-&gt;relm.Function">

<path fill="none" stroke="black" d="M623.83,-334.92C620.35,-412.77 605.2,-719.28 580.59,-754 533.17,-820.92 423.75,-809.22 362.61,-796.27" style=""/>
<polygon fill="black" stroke="black" points="362.77,-796.3 356.04,-798.89 351.06,-793.68 357.79,-791.09 362.77,-796.3" style=""/>
<text text-anchor="middle" x="493.16" y="-810.2" font-family="Times,serif" font-size="14.00" fill="green" style="">entry</text>
</g>
<!-- relm.Label&#45;&gt;relm.Function -->
<g id="edge34" class="edge" data-name="relm.Label-&gt;relm.Function">

<path fill="none" stroke="black" d="M625.28,-334.65C626.48,-391.1 622.53,-569.38 531.49,-669 506.07,-696.81 487.76,-686.89 454.83,-705.2 417.07,-726.21 410.7,-736.56 373.18,-758 369.41,-760.15 365.46,-762.31 361.47,-764.43" style=""/>
<polygon fill="black" stroke="black" points="361.6,-764.36 358.11,-770.67 350.94,-769.87 354.44,-763.56 361.6,-764.36" style=""/>
<text text-anchor="middle" x="493.16" y="-709.2" font-family="Times,serif" font-size="14.00" fill="green" style="">return_</text>
</g>
<!-- relm.Label&#45;&gt;relm.Function -->
<g id="edge35" class="edge" data-name="relm.Label-&gt;relm.Function">

<path fill="none" stroke="black" d="M624.59,-334.91C624.34,-410.25 620.73,-701.32 580.59,-782 540.9,-861.78 468.27,-843.46 383.18,-817 378.41,-815.52 370.32,-811.8 361.48,-807.41" style=""/>
<polygon fill="black" stroke="black" points="361.59,-807.47 354.43,-808.31 350.9,-802.03 358.06,-801.18 361.59,-807.47" style=""/>
<text text-anchor="middle" x="493.16" y="-843.2" font-family="Times,serif" font-size="14.00" fill="green" style="">align</text>
</g>
<!-- relm.Loop -->
<g id="node38" class="node" pointer-events="visible" data-name="relm.Loop">

<polygon fill="none" stroke="black" points="291.29,-512 291.29,-548 345.29,-548 345.29,-512 291.29,-512" style=""/>
<text text-anchor="start" x="303.51" y="-525.9" font-family="Times,serif" font-size="14.00" style="">Loop</text>
</g>
<!-- relm.Label&#45;&gt;relm.Loop -->
<g id="edge36" class="edge" data-name="relm.Label-&gt;relm.Loop">

<path fill="none" stroke="black" d="M622.94,-334.9C619.57,-361.22 609.57,-410.34 580.59,-439 572.32,-447.18 426.84,-495.12 356.62,-517.94" style=""/>
<polygon fill="black" stroke="black" points="356.64,-517.93 352.17,-523.59 345.23,-521.63 349.7,-515.98 356.64,-517.93" style=""/>
<text text-anchor="middle" x="493.16" y="-489.2" font-family="Times,serif" font-size="14.00" fill="green" style="">continue_</text>
</g>
<!-- relm.Label&#45;&gt;relm.Loop -->
<g id="edge37" class="edge" data-name="relm.Label-&gt;relm.Loop">

<path fill="none" stroke="black" d="M617.02,-334.71C609.67,-350.06 597.2,-371.97 580.59,-386 534.24,-425.17 508.23,-410.36 454.83,-439.2 418.37,-458.89 379.31,-485.73 352.54,-505.12" style=""/>
<polygon fill="black" stroke="black" points="352.6,-505.08 350.11,-511.85 342.91,-512.16 345.39,-505.39 352.6,-505.08" style=""/>
<text text-anchor="middle" x="493.16" y="-444.2" font-family="Times,serif" font-size="14.00" fill="green" style="">align</text>
</g>
<!-- relm.Label&#45;&gt;relm.Loop -->
<g id="edge38" class="edge" data-name="relm.Label-&gt;relm.Loop">

<path fill="none" stroke="black" d="M598.69,-325.4C550.94,-341.97 448.02,-382.93 383.18,-447 366.15,-463.83 349.73,-485.3 337.81,-502.19" style=""/>
<polygon fill="black" stroke="black" points="337.83,-502.17 337.7,-509.38 331,-512.03 331.12,-504.82 337.83,-502.17" style=""/>
<text text-anchor="middle" x="493.16" y="-396.2" font-family="Times,serif" font-size="14.00" fill="green" style="">break_</text>
</g>
<!-- relm.While -->
<g id="node39" class="node" pointer-events="visible" data-name="relm.While">

<polygon fill="none" stroke="black" points="466.16,-513 466.16,-549 520.16,-549 520.16,-513 466.16,-513" style=""/>
<text text-anchor="start" x="476.06" y="-526.9" font-family="Times,serif" font-size="14.00" style="">While</text>
</g>
<!-- relm.Label&#45;&gt;relm.While -->
<g id="edge40" class="edge" data-name="relm.Label-&gt;relm.While">

<path fill="none" stroke="black" d="M624.96,-334.89C624.72,-369.32 619.49,-445.5 580.59,-492 567.94,-507.12 548.21,-516.63 530.79,-522.47" style=""/>
<polygon fill="black" stroke="black" points="531.27,-522.33 526.68,-527.89 519.78,-525.8 524.37,-520.23 531.27,-522.33" style=""/>
<text text-anchor="middle" x="565.04" y="-518.2" font-family="Times,serif" font-size="14.00" fill="green" style="">align</text>
</g>
<!-- relm.Align -->
<g id="node25" class="node" pointer-events="visible" data-name="relm.Align">

<polygon fill="none" stroke="black" points="713.76,-299 713.76,-335 767.76,-335 767.76,-299 713.76,-299" style=""/>
<text text-anchor="start" x="724.81" y="-312.9" font-family="Times,serif" font-size="14.00" style="">Align</text>
</g>
<!-- relm.Align&#45;&gt;relm.Label -->
<g id="edge2" class="edge" data-name="relm.Align-&gt;relm.Label">

<path fill="none" stroke="black" d="M713.8,-317C698.99,-317 680.18,-317 663.82,-317" style=""/>
<polygon fill="none" stroke="black" points="663.95,-313.5 653.95,-317 663.95,-320.5 663.95,-313.5" style=""/>
</g>
<!-- relm.If -->
<g id="node26" class="node" pointer-events="visible" data-name="relm.If">

<polygon fill="none" stroke="black" points="291.29,-337 291.29,-373 345.29,-373 345.29,-337 291.29,-337" style=""/>
<text text-anchor="start" x="313.63" y="-350.9" font-family="Times,serif" font-size="14.00" style="">If</text>
</g>
<!-- relm.If&#45;&gt;relm.ErrorStatement -->
<g id="edge17" class="edge" data-name="relm.If-&gt;relm.ErrorStatement">

<path fill="none" stroke="black" d="M294.19,-372.85C267.37,-393.59 222.96,-427.91 192.81,-451.22" style=""/>
<polygon fill="none" stroke="black" points="190.91,-448.26 185.14,-457.15 195.19,-453.8 190.91,-448.26" style=""/>
</g>
<!-- relm.IfThen -->
<g id="node27" class="node" pointer-events="visible" data-name="relm.IfThen">

<polygon fill="none" stroke="black" points="132.7,-303 132.7,-339 186.79,-339 186.79,-303 132.7,-303" style=""/>
<text text-anchor="start" x="140.7" y="-316.9" font-family="Times,serif" font-size="14.00" style="">IfThen</text>
</g>
<!-- relm.If&#45;&gt;relm.IfThen -->
<g id="edge51" class="edge" data-name="relm.If-&gt;relm.IfThen">

<path fill="none" stroke="black" d="M291.42,-346.02C279.89,-342.27 266.07,-338.12 253.4,-335.2 235.41,-331.06 215.16,-327.8 198.2,-325.45" style=""/>
<polygon fill="none" stroke="black" points="198.4,-325.48 191.93,-328.66 186.5,-323.91 192.98,-320.73 198.4,-325.48" style=""/>
<text text-anchor="middle" x="240.96" y="-340.2" font-family="Times,serif" font-size="14.00" fill="green" style="">if_</text>
</g>
<!-- relm.IfThen&#45;&gt;relm.Statement -->
<g id="edge18" class="edge" data-name="relm.IfThen-&gt;relm.Statement">

<path fill="none" stroke="black" d="M134.81,-338.74C119.86,-351.01 101.36,-368.58 89.99,-388 58.12,-442.4 44.98,-516.34 39.91,-556.71" style=""/>
<polygon fill="none" stroke="black" points="36.44,-556.27 38.76,-566.61 43.39,-557.08 36.44,-556.27" style=""/>
</g>
<!-- relm.IfThen&#45;&gt;relm.IfThen -->
<g id="edge52" class="edge" data-name="relm.IfThen-&gt;relm.IfThen">

<path fill="none" stroke="black" d="M172.11,-338.65C174.42,-348.46 170.3,-357.5 159.75,-357.5 153.81,-357.5 149.91,-354.64 148.05,-350.39" style=""/>
<polygon fill="none" stroke="black" points="148.06,-350.63 143.73,-344.87 147.38,-338.65 151.72,-344.42 148.06,-350.63" style=""/>
<text text-anchor="middle" x="159.75" y="-361.7" font-family="Times,serif" font-size="14.00" fill="green" style="">Else</text>
</g>
<!-- relm.IfThenElse -->
<g id="node28" class="node" pointer-events="visible" data-name="relm.IfThenElse">

<polygon fill="none" stroke="black" points="279.19,-282 279.19,-318 357.39,-318 357.39,-282 279.19,-282" style=""/>
<text text-anchor="start" x="287.19" y="-295.9" font-family="Times,serif" font-size="14.00" style="">IfThenElse</text>
</g>
<!-- relm.IfThenElse&#45;&gt;relm.Statement -->
<g id="edge19" class="edge" data-name="relm.IfThenElse-&gt;relm.Statement">

<path fill="none" stroke="black" d="M279.35,-285.44C233.82,-270.68 157.54,-254.93 108.99,-293 67.37,-325.63 46.61,-489.09 39.7,-556.68" style=""/>
<polygon fill="none" stroke="black" points="36.22,-556.33 38.72,-566.62 43.18,-557.02 36.22,-556.33" style=""/>
</g>
<!-- relm.SRAM -->
<g id="node29" class="node" pointer-events="visible" data-name="relm.SRAM">

<polygon fill="none" stroke="black" points="874.93,-1155 874.93,-1191 930.61,-1191 930.61,-1155 874.93,-1155" style=""/>
<text text-anchor="start" x="882.93" y="-1168.9" font-family="Times,serif" font-size="14.00" style="">SRAM</text>
</g>
<!-- relm.SRAM&#45;&gt;relm.SRAMElement -->
<g id="edge55" class="edge" data-name="relm.SRAM-&gt;relm.SRAMElement">

<path fill="none" stroke="black" d="M874.99,-1178.86C855.41,-1183.14 828.03,-1189.13 803.19,-1194.56" style=""/>
<polygon fill="none" stroke="black" points="803.34,-1194.53 798.33,-1199.72 791.62,-1197.09 796.62,-1191.9 803.34,-1194.53" style=""/>
<text text-anchor="middle" x="824.3" y="-1196.2" font-family="Times,serif" font-size="14.00" fill="green" style="">sram</text>
</g>
<!-- relm.SRAMOffset -->
<g id="node31" class="node" pointer-events="visible" data-name="relm.SRAMOffset">

<polygon fill="none" stroke="black" points="695.42,-1135 695.42,-1171 786.09,-1171 786.09,-1135 695.42,-1135" style=""/>
<text text-anchor="start" x="703.42" y="-1148.9" font-family="Times,serif" font-size="14.00" style="">SRAMOffset</text>
</g>
<!-- relm.SRAM&#45;&gt;relm.SRAMOffset -->
<g id="edge56" class="edge" data-name="relm.SRAM-&gt;relm.SRAMOffset">

<path fill="none" stroke="black" d="M874.99,-1169.65C853.93,-1167.02 823.86,-1163.26 797.61,-1159.98" style=""/>
<polygon fill="none" stroke="black" points="797.78,-1160 791.33,-1163.23 785.87,-1158.51 792.32,-1155.29 797.78,-1160" style=""/>
<text text-anchor="middle" x="824.3" y="-1168.2" font-family="Times,serif" font-size="14.00" fill="green" style="">sram</text>
</g>
<!-- relm.SRAMElement&#45;&gt;relm.Expr -->
<g id="edge25" class="edge" data-name="relm.SRAMElement-&gt;relm.Expr">

<path fill="none" stroke="black" d="M692.96,-1190.1C688.84,-1187.43 684.96,-1184.4 681.59,-1181 655.83,-1154.95 640.94,-1114.71 633.3,-1087.64" style=""/>
<polygon fill="none" stroke="black" points="636.7,-1086.82 630.76,-1078.04 629.94,-1088.61 636.7,-1086.82" style=""/>
</g>
<!-- relm.SRAMOffset&#45;&gt;relm.Expr -->
<g id="edge26" class="edge" data-name="relm.SRAMOffset-&gt;relm.Expr">

<path fill="none" stroke="black" d="M718.21,-1135.1C700.82,-1120.66 676.17,-1100.18 656.81,-1084.1" style=""/>
<polygon fill="none" stroke="black" points="659.16,-1081.5 649.23,-1077.8 654.69,-1086.88 659.16,-1081.5" style=""/>
</g>
<!-- relm.Function&#45;&gt;relm.ErrorStatement -->
<g id="edge16" class="edge" data-name="relm.Function-&gt;relm.ErrorStatement">

<path fill="none" stroke="black" d="M285.69,-770.69C280.35,-767.16 275.29,-762.94 271.4,-758 230.87,-706.54 243.02,-680.87 228.51,-617 217.54,-568.7 239.15,-544.7 212.38,-503.09" style=""/>
<polygon fill="none" stroke="black" points="215.4,-501.31 206.77,-495.17 209.69,-505.35 215.4,-501.31" style=""/>
</g>
<!-- relm.IntFunction -->
<g id="node33" class="node" pointer-events="visible" data-name="relm.IntFunction">

<polygon fill="none" stroke="black" points="119.08,-767 119.08,-803 200.41,-803 200.41,-767 119.08,-767" style=""/>
<text text-anchor="start" x="127.08" y="-780.9" font-family="Times,serif" font-size="14.00" style="">IntFunction</text>
</g>
<!-- relm.Function&#45;&gt;relm.IntFunction -->
<g id="edge50" class="edge" data-name="relm.Function-&gt;relm.IntFunction">

<path fill="none" stroke="black" d="M285.61,-785C264.52,-785 236.33,-785 212.07,-785" style=""/>
<polygon fill="none" stroke="black" points="212.16,-785 206.16,-789 200.16,-785 206.16,-781 212.16,-785" style=""/>
<text text-anchor="middle" x="240.96" y="-789.2" font-family="Times,serif" font-size="14.00" fill="green" style="">func</text>
</g>
<!-- relm.IntFunction&#45;&gt;relm.Statement -->
<g id="edge21" class="edge" data-name="relm.IntFunction-&gt;relm.Statement">

<path fill="none" stroke="black" d="M143.04,-767.31C128.24,-750.12 106.01,-722.88 89.99,-697 73.37,-670.16 58.28,-637.31 48.48,-614.34" style=""/>
<polygon fill="none" stroke="black" points="51.8,-613.19 44.71,-605.32 45.34,-615.89 51.8,-613.19" style=""/>
</g>
<!-- relm.VoidFunction -->
<g id="node34" class="node" pointer-events="visible" data-name="relm.VoidFunction">

<polygon fill="none" stroke="black" points="271.4,-822 271.4,-858 365.18,-858 365.18,-822 271.4,-822" style=""/>
<text text-anchor="start" x="279.4" y="-835.9" font-family="Times,serif" font-size="14.00" style="">VoidFunction</text>
</g>
<!-- relm.VoidFunction&#45;&gt;relm.IntFunction -->
<g id="edge28" class="edge" data-name="relm.VoidFunction-&gt;relm.IntFunction">

<path fill="none" stroke="black" d="M271.59,-823.94C252.64,-817.29 230.6,-809.54 211.18,-802.72" style=""/>
<polygon fill="none" stroke="black" points="212.42,-799.44 201.82,-799.43 210.1,-806.05 212.42,-799.44" style=""/>
</g>
<!-- relm.Do -->
<g id="node35" class="node" pointer-events="visible" data-name="relm.Do">

<polygon fill="none" stroke="black" points="466.16,-568 466.16,-604 520.16,-604 520.16,-568 466.16,-568" style=""/>
<text text-anchor="start" x="484.61" y="-581.9" font-family="Times,serif" font-size="14.00" style="">Do</text>
</g>
<!-- relm.Do&#45;&gt;relm.Loop -->
<g id="edge10" class="edge" data-name="relm.Do-&gt;relm.Loop">

<path fill="none" stroke="black" d="M466.28,-577.62C436.92,-568.1 388.81,-552.52 355.68,-541.79" style=""/>
<polygon fill="none" stroke="black" points="357.1,-538.57 346.5,-538.82 354.94,-545.23 357.1,-538.57" style=""/>
</g>
<!-- relm.DoLoop&#45;&gt;relm.Statement -->
<g id="edge11" class="edge" data-name="relm.DoLoop-&gt;relm.Statement">

<path fill="none" stroke="black" d="M128.65,-586C114.96,-586 98.45,-586 83.23,-586" style=""/>
<polygon fill="none" stroke="black" points="83.43,-582.5 73.43,-586 83.43,-589.5 83.43,-582.5" style=""/>
</g>
<!-- relm.DoWhile&#45;&gt;relm.Statement -->
<g id="edge12" class="edge" data-name="relm.DoWhile-&gt;relm.Statement">

<path fill="none" stroke="black" d="M126.12,-545.74C112.63,-551.83 96.76,-559 82.18,-565.59" style=""/>
<polygon fill="none" stroke="black" points="80.9,-562.33 73.22,-569.63 83.78,-568.71 80.9,-562.33" style=""/>
</g>
<!-- relm.Loop&#45;&gt;relm.ErrorStatement -->
<g id="edge23" class="edge" data-name="relm.Loop-&gt;relm.ErrorStatement">

<path fill="none" stroke="black" d="M303.2,-512.07C291.5,-498.73 273.56,-481.58 253.4,-474 243.56,-470.3 232.7,-468.62 221.99,-468.16" style=""/>
<polygon fill="none" stroke="black" points="222.01,-464.66 212,-468.13 221.98,-471.66 222.01,-464.66" style=""/>
</g>
<!-- relm.Loop&#45;&gt;relm.DoLoop -->
<g id="edge53" class="edge" data-name="relm.Loop-&gt;relm.DoLoop">

<path fill="none" stroke="black" d="M291.44,-539.25C267.17,-547.93 230.45,-561.06 202.11,-571.2" style=""/>
<polygon fill="none" stroke="black" points="202.22,-571.16 197.92,-576.95 190.93,-575.2 195.23,-569.42 202.22,-571.16" style=""/>
<text text-anchor="middle" x="240.96" y="-565.2" font-family="Times,serif" font-size="14.00" fill="green" style="">loop</text>
</g>
<!-- relm.Loop&#45;&gt;relm.DoWhile -->
<g id="edge54" class="edge" data-name="relm.Loop-&gt;relm.DoWhile">

<path fill="none" stroke="black" d="M291.65,-529.99C273.92,-530 249.78,-530.05 228.51,-530.2 220.94,-530.25 212.9,-530.33 205.1,-530.42" style=""/>
<polygon fill="none" stroke="black" points="205.15,-530.41 199.19,-534.48 193.15,-530.55 199.1,-526.49 205.15,-530.41" style=""/>
<text text-anchor="middle" x="240.96" y="-534.2" font-family="Times,serif" font-size="14.00" fill="green" style="">loop</text>
</g>
<!-- relm.While&#45;&gt;relm.Loop -->
<g id="edge29" class="edge" data-name="relm.While-&gt;relm.Loop">

<path fill="none" stroke="black" d="M466.28,-530.85C437.17,-530.68 389.65,-530.41 356.55,-530.22" style=""/>
<polygon fill="none" stroke="black" points="356.6,-526.72 346.58,-530.16 356.56,-533.72 356.6,-526.72" style=""/>
</g>
</g>
</svg>